<svg width="20" height="25" viewBox="0 0 20 25" fill="none" xmlns="http://www.w3.org/2000/svg">
<path d="M1.59447 25C1.22734 25 0.875244 24.8542 0.615642 24.5946C0.356041 24.335 0.210198 23.9829 0.210198 23.6157L0.00255691 3.32226C-0.0141117 2.91022 0.0508446 2.49896 0.19369 2.11211C0.336535 1.72527 0.55445 1.37048 0.834902 1.06816C1.11535 0.76584 1.45281 0.521946 1.82786 0.350509C2.20291 0.179072 2.60815 0.083474 3.02028 0.0692137L16.2955 0C16.7081 0.00720767 17.1154 0.0956429 17.4938 0.260254C17.8723 0.424865 18.2147 0.662428 18.5013 0.959372C18.788 1.25632 19.0134 1.60683 19.1645 1.99088C19.3157 2.37493 19.3897 2.785 19.3824 3.19767L19.5762 23.4911C19.5786 23.7337 19.5172 23.9727 19.3981 24.184C19.2791 24.3954 19.1066 24.5718 18.8979 24.6955C18.6875 24.817 18.4488 24.8809 18.2058 24.8809C17.9628 24.8809 17.7241 24.817 17.5136 24.6955L9.62327 20.3212L2.30045 24.7924C2.08361 24.9135 1.84236 24.9844 1.59447 25ZM9.56789 17.3173C9.80843 17.3177 10.0455 17.3746 10.26 17.4834L16.78 21.0963L16.6139 3.16999C16.6139 2.89313 16.4339 2.69934 16.3232 2.71318L3.03412 2.83776C2.92338 2.83776 2.77111 3.01772 2.77111 3.29457L2.93722 21.1517L8.86191 17.5111C9.07709 17.3879 9.31997 17.3212 9.56789 17.3173Z" fill="black" fill-opacity="0.75"/>
</svg>
