<svg width="21" height="22" viewBox="0 0 21 22" fill="none" xmlns="http://www.w3.org/2000/svg">
<path d="M4.65735 11.5921C4.06114 11.4731 3.49486 11.2358 2.99197 10.8941C2.48908 10.5525 2.05981 10.1135 1.72953 9.60305C1.39926 9.09262 1.17469 8.52115 1.0691 7.92243C0.963518 7.32371 0.979062 6.70989 1.11482 6.11728C1.25057 5.52467 1.50378 4.9653 1.85947 4.47225C2.21515 3.97919 2.6661 3.56247 3.18563 3.24672C3.70517 2.93096 4.28274 2.7226 4.8842 2.63394C5.48567 2.54527 6.0988 2.57812 6.68735 2.73053C7.1126 2.19066 7.65488 1.75439 8.27329 1.45462C8.8917 1.15485 9.57011 0.999402 10.2573 1C10.9644 0.999386 11.6618 1.16389 12.294 1.48041C12.9262 1.79693 13.4758 2.25673 13.8989 2.82316C14.4886 2.62313 15.113 2.54633 15.7335 2.5975C16.3541 2.64867 16.9575 2.82674 17.5064 3.12066C18.0553 3.41458 18.538 3.81809 18.9246 4.30619C19.3111 4.79429 19.5933 5.35657 19.7537 5.95821C19.9141 6.55984 19.9492 7.188 19.8569 7.80376C19.7646 8.41951 19.5468 9.00975 19.217 9.5379C18.8872 10.066 18.4525 10.5208 17.9398 10.8741C17.4271 11.2274 16.8473 11.4716 16.2363 11.5916V19.9474C16.2363 20.2265 16.1254 20.4943 15.928 20.6917C15.7306 20.8891 15.4628 21 15.1837 21H5.70998C5.4308 21 5.16306 20.8891 4.96565 20.6917C4.76825 20.4943 4.65735 20.2265 4.65735 19.9474V11.5921Z" stroke="#CCCCCC" stroke-width="2" stroke-linecap="round" stroke-linejoin="round"/>
<path d="M4.65735 15.2105H16.2363" stroke="#CCCCCC" stroke-width="2" stroke-linecap="round" stroke-linejoin="round"/>
<path d="M8.34155 12.0526V15.2105" stroke="#CCCCCC" stroke-width="2" stroke-linecap="round" stroke-linejoin="round"/>
<path d="M16.2363 13.6316V16.7895" stroke="#CCCCCC" stroke-width="2" stroke-linecap="round" stroke-linejoin="round"/>
<path d="M4.65735 13.6316V16.7895" stroke="#CCCCCC" stroke-width="2" stroke-linecap="round" stroke-linejoin="round"/>
</svg>
