<svg width="17" height="22" viewBox="0 0 17 22" fill="none" xmlns="http://www.w3.org/2000/svg">
<path d="M8.5 21C12.6175 21 16 17.737 16 13.549C16 12.521 15.9475 11.419 15.3775 9.706C14.8075 7.993 14.693 7.772 14.0905 6.714C13.833 8.8725 12.4555 9.7725 12.1055 10.0415C12.1055 9.7615 11.2725 6.668 10.009 4.8165C8.7685 3 7.0815 1.8085 6.0925 1C6.0925 2.535 5.661 4.817 5.0425 5.98C4.4245 7.1425 4.3085 7.185 3.536 8.05C2.764 8.915 2.4095 9.1825 1.7635 10.2325C1.118 11.2825 1 12.681 1 13.709C1 17.897 4.3825 21 8.5 21Z" stroke="#CCCCCC" stroke-width="2" stroke-linejoin="round"/>
</svg>
