<svg width="24" height="25" viewBox="0 0 24 25" fill="none" xmlns="http://www.w3.org/2000/svg">
<path d="M12.8484 0.5252C12.4917 0.187925 12.0193 0 11.5284 0C11.0375 0 10.5651 0.187925 10.2084 0.5252L0.901138 9.32137C0.616159 9.59105 0.389241 9.91607 0.234289 10.2765C0.0793367 10.637 -0.000387301 11.0253 1.41463e-06 11.4176V22.1198C0.00051078 22.8839 0.304385 23.6164 0.844828 24.1565C1.38527 24.6966 2.11805 25 2.8821 25H5.7642C6.52858 25 7.26166 24.6964 7.80216 24.1559C8.34266 23.6154 8.6463 22.8823 8.6463 22.1179V17.3144C8.6463 17.0596 8.74752 16.8152 8.92769 16.6351C9.10785 16.4549 9.35221 16.3537 9.607 16.3537H13.4498C13.7046 16.3537 13.949 16.4549 14.1291 16.6351C14.3093 16.8152 14.4105 17.0596 14.4105 17.3144V22.1179C14.4105 22.8823 14.7142 23.6154 15.2547 24.1559C15.7952 24.6964 16.5282 25 17.2926 25H20.1747C20.9391 25 21.6722 24.6964 22.2127 24.1559C22.7532 23.6154 23.0568 22.8823 23.0568 22.1179V11.4157C23.0567 11.0235 22.9765 10.6355 22.8213 10.2754C22.666 9.91529 22.4388 9.59066 22.1537 9.32137L12.8484 0.521358V0.5252Z" fill="black"/>
</svg>
