<svg width="23" height="25" viewBox="0 0 23 25" fill="none" xmlns="http://www.w3.org/2000/svg">
<path d="M6.93591e-07 3.02234C-0.000357873 2.49317 0.138316 1.9732 0.402137 1.51449C0.665957 1.05578 1.04566 0.674439 1.50323 0.408646C1.9608 0.142852 2.48017 0.00194007 3.00933 1.98904e-05C3.53849 -0.00190029 4.05887 0.135239 4.51835 0.397705L21.1058 9.87839C21.5677 10.1427 21.9516 10.5243 22.2187 10.9847C22.4857 11.445 22.6263 11.9678 22.6263 12.5C22.6263 13.0322 22.4857 13.555 22.2187 14.0153C21.9516 14.4757 21.5677 14.8573 21.1058 15.1216L4.51835 24.6023C4.05887 24.8648 3.53849 25.0019 3.00933 25C2.48017 24.9981 1.9608 24.8571 1.50323 24.5914C1.04566 24.3256 0.665957 23.9442 0.402137 23.4855C0.138316 23.0268 -0.000357873 22.5068 6.93591e-07 21.9777V3.02234ZM19.6077 12.5L3.02029 3.02234V21.9777L19.6077 12.5Z" fill="white"/>
</svg>
