<svg width="29" height="29" viewBox="0 0 29 29" fill="none" xmlns="http://www.w3.org/2000/svg">
<path d="M2 6.6875V5.125C2 4.2962 2.32924 3.50134 2.91529 2.91529C3.50134 2.32924 4.2962 2 5.125 2H8.25" stroke="black" stroke-opacity="0.75" stroke-width="3" stroke-linecap="round" stroke-linejoin="round"/>
<path d="M2 22.3125V23.875C2 24.7038 2.32924 25.4987 2.91529 26.0847C3.50134 26.6708 4.2962 27 5.125 27H8.25" stroke="black" stroke-opacity="0.75" stroke-width="3" stroke-linecap="round" stroke-linejoin="round"/>
<path d="M20.75 2H23.875C24.7038 2 25.4987 2.32924 26.0847 2.91529C26.6708 3.50134 27 4.2962 27 5.125V6.6875" stroke="black" stroke-opacity="0.75" stroke-width="3" stroke-linecap="round" stroke-linejoin="round"/>
<path d="M20.75 27H23.875C24.7038 27 25.4987 26.6708 26.0847 26.0847C26.6708 25.4987 27 24.7038 27 23.875V22.3125" stroke="black" stroke-opacity="0.75" stroke-width="3" stroke-linecap="round" stroke-linejoin="round"/>
<path d="M3.5625 14.5H25.4375" stroke="black" stroke-opacity="0.75" stroke-width="3" stroke-linecap="round" stroke-linejoin="round"/>
</svg>
